<svg xmlns="http://www.w3.org/2000/svg" width="24" height="24" viewBox="0 0 24 24" fill="none" stroke="currentColor" stroke-width="2" stroke-linecap="round" stroke-linejoin="round">
  <path d="M9 19c-5 1.5-5-2.5-7-3m14 6v-3.9a3.2 3.2 0 0 0-.9-2.5c3-.3 6-1.5 6-7a5.4 5.4 0 0 0-1.5-3.7 5 5 0 0 0-.1-3.8s-1.2-.4-4 1.5a13.4 13.4 0 0 0-7 0c-2.8-2-4-1.5-4-1.5a5 5 0 0 0-.1 3.8A5.4 5.4 0 0 0 3 12.2c0 5.5 3 6.7 6 7a3.2 3.2 0 0 0-.9 2.5V21"/>
  <path d="m16 18 3-3-3-3"/>
  <path d="m19 15 3 3-3 3"/>
</svg>

