<svg xmlns="http://www.w3.org/2000/svg" xmlns:xlink="http://www.w3.org/1999/xlink" zoomAndPan="magnify" preserveAspectRatio="xMidYMid meet" version="1.2" viewBox="98.08 149.09 166.01 87.3"><defs/><g id="3ea3c52d93"><g style="fill:#ff67b5;fill-opacity:1;"><g transform="translate(99.169356, 203.274068)"><path style="stroke:none" d="M -1.09375 -54.1875 L 32.15625 -54.1875 L 40.65625 -45.609375 L 40.65625 -7.625 C 40.65625 -6.632812 41.375 -5.46875 42.8125 -4.125 C 44.257812 -2.789062 45.976562 -1.640625 47.96875 -0.671875 C 49.957031 0.296875 51.632812 0.78125 53 0.78125 C 53.894531 0.78125 54.757812 0.546875 55.59375 0.078125 C 56.4375 -0.390625 57.144531 -1.070312 57.71875 -1.96875 L 65.828125 2.828125 C 63.929688 4.867188 61.726562 5.890625 59.21875 5.890625 C 56.070312 5.890625 52.28125 4.773438 47.84375 2.546875 C 43.414062 0.328125 39.578125 -2.285156 36.328125 -5.296875 C 33.078125 -8.316406 31.453125 -10.898438 31.453125 -13.046875 L 31.453125 -19.265625 C 30.359375 -18.160156 29.164062 -17.304688 27.875 -16.703125 C 26.59375 -16.109375 25.347656 -15.8125 24.140625 -15.8125 C 21.628906 -15.8125 18.800781 -16.703125 15.65625 -18.484375 C 12.507812 -20.265625 9.832031 -22.398438 7.625 -24.890625 C 5.425781 -27.378906 4.328125 -29.515625 4.328125 -31.296875 L 4.328125 -45.609375 L -1.09375 -45.609375 Z M 36.96875 -54.1875 L 49.546875 -54.1875 L 49.546875 -45.609375 L 45.21875 -45.609375 Z M 18.171875 -21.46875 C 20.265625 -21.46875 22.488281 -22.289062 24.84375 -23.9375 C 27.207031 -25.59375 29.410156 -27.890625 31.453125 -30.828125 L 31.453125 -45.609375 L 13.453125 -45.609375 L 13.453125 -25.796875 C 13.453125 -24.585938 13.910156 -23.5625 14.828125 -22.71875 C 15.742188 -21.882812 16.859375 -21.46875 18.171875 -21.46875 Z M 18.171875 -21.46875 "/></g></g><g style="fill:#f82a94;fill-opacity:1;"><g transform="translate(147.696697, 203.274068)"><path style="stroke:none" d="M 116.390625 2.828125 C 115.597656 3.828125 114.625 4.585938 113.46875 5.109375 C 112.320312 5.628906 111.09375 5.890625 109.78125 5.890625 C 106.945312 5.890625 103.289062 4.773438 98.8125 2.546875 C 94.332031 0.328125 90.410156 -2.328125 87.046875 -5.421875 C 83.691406 -8.515625 82.015625 -11.269531 82.015625 -13.6875 L 82.015625 -28.46875 C 80.609375 -30.144531 79.273438 -30.984375 78.015625 -30.984375 C 75.910156 -30.984375 74.226562 -29.851562 72.96875 -27.59375 C 71.71875 -25.34375 71.09375 -21.804688 71.09375 -16.984375 L 62.515625 -20.6875 C 62.515625 -21.78125 62.726562 -23.847656 63.15625 -26.890625 C 62.519531 -27.941406 61.726562 -28.804688 60.78125 -29.484375 C 59.84375 -30.171875 58.925781 -30.515625 58.03125 -30.515625 C 56.507812 -30.515625 55.109375 -29.945312 53.828125 -28.8125 C 52.546875 -27.6875 51.507812 -26.191406 50.71875 -24.328125 C 49.9375 -22.472656 49.546875 -20.550781 49.546875 -18.5625 C 49.546875 -16.300781 50.445312 -13.804688 52.25 -11.078125 C 54.0625 -8.359375 56.265625 -6.066406 58.859375 -4.203125 C 61.453125 -2.347656 63.800781 -1.421875 65.90625 -1.421875 C 67 -1.421875 68.082031 -1.664062 69.15625 -2.15625 C 70.238281 -2.65625 71.144531 -3.328125 71.875 -4.171875 L 78.015625 1.5 C 77.171875 2.382812 76.171875 3.0625 75.015625 3.53125 C 73.867188 4.007812 72.664062 4.25 71.40625 4.25 C 67.363281 4.25 63.035156 2.675781 58.421875 -0.46875 C 53.816406 -3.613281 49.941406 -7.492188 46.796875 -12.109375 C 43.648438 -16.722656 42.078125 -21.078125 42.078125 -25.171875 C 42.078125 -26.898438 42.335938 -28.445312 42.859375 -29.8125 C 41.910156 -30.59375 41.046875 -30.984375 40.265625 -30.984375 C 39.003906 -30.984375 37.835938 -30.445312 36.765625 -29.375 C 35.691406 -28.300781 34.835938 -26.867188 34.203125 -25.078125 C 33.578125 -23.296875 33.265625 -21.410156 33.265625 -19.421875 L 33.265625 -16.984375 L 24.765625 -20.6875 C 24.765625 -22.15625 24.953125 -24.222656 25.328125 -26.890625 C 24.691406 -27.941406 23.898438 -28.804688 22.953125 -29.484375 C 22.015625 -30.171875 21.097656 -30.515625 20.203125 -30.515625 C 18.742188 -30.515625 17.359375 -29.9375 16.046875 -28.78125 C 14.734375 -27.625 13.679688 -26.128906 12.890625 -24.296875 C 12.109375 -22.460938 11.71875 -20.550781 11.71875 -18.5625 C 11.71875 -16.300781 12.617188 -13.804688 14.421875 -11.078125 C 16.234375 -8.359375 18.4375 -6.066406 21.03125 -4.203125 C 23.625 -2.347656 25.972656 -1.421875 28.078125 -1.421875 C 29.117188 -1.421875 30.140625 -1.664062 31.140625 -2.15625 C 32.140625 -2.65625 32.953125 -3.328125 33.578125 -4.171875 L 40.265625 1.5 C 39.421875 2.382812 38.410156 3.0625 37.234375 3.53125 C 36.054688 4.007812 34.835938 4.25 33.578125 4.25 C 29.546875 4.25 25.234375 2.675781 20.640625 -0.46875 C 16.054688 -3.613281 12.191406 -7.492188 9.046875 -12.109375 C 5.898438 -16.722656 4.328125 -21.078125 4.328125 -25.171875 C 4.328125 -27.472656 4.8125 -29.644531 5.78125 -31.6875 C 6.75 -33.738281 8.03125 -35.378906 9.625 -36.609375 C 11.226562 -37.835938 12.921875 -38.453125 14.703125 -38.453125 C 16.585938 -38.453125 18.617188 -37.703125 20.796875 -36.203125 C 22.972656 -34.710938 24.898438 -32.710938 26.578125 -30.203125 C 27.316406 -32.453125 28.445312 -34.296875 29.96875 -35.734375 C 31.488281 -37.179688 33.085938 -37.90625 34.765625 -37.90625 C 35.960938 -37.90625 37.398438 -37.472656 39.078125 -36.609375 C 40.753906 -35.742188 42.460938 -34.5 44.203125 -32.875 C 45.191406 -34.550781 46.429688 -35.898438 47.921875 -36.921875 C 49.421875 -37.941406 50.957031 -38.453125 52.53125 -38.453125 C 54.414062 -38.453125 56.445312 -37.703125 58.625 -36.203125 C 60.800781 -34.710938 62.726562 -32.710938 64.40625 -30.203125 C 65.132812 -32.453125 66.257812 -34.296875 67.78125 -35.734375 C 69.300781 -37.179688 70.898438 -37.90625 72.578125 -37.90625 C 73.785156 -37.90625 75.226562 -37.472656 76.90625 -36.609375 C 78.582031 -35.742188 80.285156 -34.5 82.015625 -32.875 L 82.015625 -45.609375 L -1.09375 -45.609375 L -1.09375 -54.1875 L 82.734375 -54.1875 L 91.296875 -45.609375 L 91.296875 -7.625 C 91.296875 -6.632812 92.003906 -5.46875 93.421875 -4.125 C 94.835938 -2.789062 96.503906 -1.640625 98.421875 -0.671875 C 100.335938 0.296875 101.945312 0.78125 103.25 0.78125 C 105.195312 0.78125 106.875 -0.160156 108.28125 -2.046875 Z M 95.859375 -45.609375 L 87.21875 -54.1875 L 100.1875 -54.1875 L 100.1875 -45.609375 Z M 95.859375 -45.609375 "/></g></g><g style="fill:#f82a94;fill-opacity:1;"><g transform="translate(247.497204, 203.274068)"><path style="stroke:none" d="M -40.578125 15.890625 C -37.171875 19.503906 -33.332031 22.375 -29.0625 24.5 C -24.789062 26.625 -20.476562 27.6875 -16.125 27.6875 C -13.757812 27.6875 -11.445312 27.160156 -9.1875 26.109375 C -6.9375 25.054688 -5.09375 23.71875 -3.65625 22.09375 C -2.21875 20.46875 -1.5 18.816406 -1.5 17.140625 C -1.5 15.566406 -2.113281 14.226562 -3.34375 13.125 C -4.570312 12.03125 -6.050781 11.484375 -7.78125 11.484375 C -9.039062 11.484375 -10.335938 11.757812 -11.671875 12.3125 C -13.015625 12.863281 -14.117188 13.554688 -14.984375 14.390625 C -15.847656 15.234375 -16.28125 16.070312 -16.28125 16.90625 C -16.28125 17.476562 -16.054688 17.960938 -15.609375 18.359375 C -15.160156 18.753906 -14.625 18.953125 -14 18.953125 C -12.945312 18.953125 -11.53125 17.851562 -9.75 15.65625 L -4.484375 18.875 C -5.421875 19.925781 -6.453125 20.75 -7.578125 21.34375 C -8.710938 21.945312 -9.859375 22.25 -11.015625 22.25 C -13.003906 22.25 -15.0625 21.816406 -17.1875 20.953125 C -19.3125 20.085938 -21.066406 19 -22.453125 17.6875 C -23.835938 16.382812 -24.53125 15.078125 -24.53125 13.765625 C -24.53125 12.347656 -24.003906 10.992188 -22.953125 9.703125 C -21.910156 8.421875 -20.507812 7.382812 -18.75 6.59375 C -17 5.8125 -15.128906 5.421875 -13.140625 5.421875 C -10.148438 5.421875 -7.109375 6.234375 -4.015625 7.859375 C -0.921875 9.484375 1.632812 11.523438 3.65625 13.984375 C 5.675781 16.453125 6.6875 18.816406 6.6875 21.078125 C 6.6875 23.171875 5.925781 25.148438 4.40625 27.015625 C 2.882812 28.878906 0.878906 30.359375 -1.609375 31.453125 C -4.097656 32.554688 -6.679688 33.109375 -9.359375 33.109375 C -21.785156 33.109375 -33.054688 28.257812 -43.171875 18.5625 Z M -40.578125 15.890625 "/></g></g><g style="fill:#edeced;fill-opacity:1;"><g transform="translate(246.872472, 203.274068)"><path style="stroke:none" d=""/></g></g></g></svg>